<?xml version="1.0" encoding="UTF-8" standalone="no"?>
<!DOCTYPE svg PUBLIC "-//W3C//DTD SVG 1.1//EN"
 "http://www.w3.org/Graphics/SVG/1.1/DTD/svg11.dtd">
<!-- Generated by graphviz version 2.28.0 (20110509.1545)
 -->
<!-- Title: _anonymous_0 Pages: 1 -->
<svg width="392pt" height="120pt"
 viewBox="0.00 0.00 392.00 120.00" xmlns="http://www.w3.org/2000/svg" xmlns:xlink="http://www.w3.org/1999/xlink">
<g id="graph1" class="graph" transform="scale(1 1) rotate(0) translate(4 116)">
<title>_anonymous_0</title>
<polygon fill="white" stroke="white" points="-4,5 -4,-116 389,-116 389,5 -4,5"/>
<!-- org_liveSense_misc_jcrom -->
<g id="node1" class="node"><title>org_liveSense_misc_jcrom</title>
<polygon fill="yellow" stroke="black" points="102.182,-75 102.182,-111 281.818,-111 281.818,-75 102.182,-75"/>
<text text-anchor="middle" x="192" y="-99" font-family="Arial" font-size="8.00">liveSense :: Misc :: Jcrom node bean mapping</text>
<polyline fill="none" stroke="black" points="102.182,-93.8008 281.818,-93.8008 "/>
<text text-anchor="middle" x="192" y="-81.3008" font-family="Arial" font-size="8.00">org.liveSense.misc.jcrom(2&#45;SNAPSHOT)</text>
</g>
<!-- javax_jcr -->
<g id="node2" class="node"><title>javax_jcr</title>
<polygon fill="green" stroke="black" points="-0.96875,-1 -0.96875,-37 182.969,-37 182.969,-1 -0.96875,-1"/>
<text text-anchor="middle" x="91" y="-25" font-family="Arial" font-size="8.00">Content Repository for JavaTM Technology API</text>
<polyline fill="none" stroke="black" points="-0.96875,-19.8008 182.969,-19.8008 "/>
<text text-anchor="middle" x="91" y="-7.30078" font-family="Arial" font-size="8.00">javax.jcr(2.0)</text>
</g>
<!-- org_liveSense_misc_jcrom&#45;&gt;javax_jcr -->
<g id="edge2" class="edge"><title>org_liveSense_misc_jcrom&#45;&gt;javax_jcr</title>
<path fill="none" stroke="yellow" d="M168.064,-74.937C154.703,-65.4122 137.874,-53.4149 123.353,-43.0635"/>
<polygon fill="yellow" stroke="yellow" points="125.288,-40.1448 115.114,-37.19 121.225,-45.8448 125.288,-40.1448"/>
</g>
<!-- org_apache_servicemix_bundles_cglib -->
<g id="node3" class="node"><title>org_apache_servicemix_bundles_cglib</title>
<polygon fill="green" stroke="black" points="201.176,-1 201.176,-37 384.824,-37 384.824,-1 201.176,-1"/>
<text text-anchor="middle" x="293" y="-25" font-family="Arial" font-size="8.00">Apache ServiceMix Bundles: cglib&#45;2.1_3</text>
<polyline fill="none" stroke="black" points="201.176,-19.8008 384.824,-19.8008 "/>
<text text-anchor="middle" x="293" y="-7.30078" font-family="Arial" font-size="8.00">org.apache.servicemix.bundles.cglib(2.1.0.3_4)</text>
</g>
<!-- org_liveSense_misc_jcrom&#45;&gt;org_apache_servicemix_bundles_cglib -->
<g id="edge4" class="edge"><title>org_liveSense_misc_jcrom&#45;&gt;org_apache_servicemix_bundles_cglib</title>
<path fill="none" stroke="yellow" d="M215.936,-74.937C229.297,-65.4122 246.126,-53.4149 260.647,-43.0635"/>
<polygon fill="yellow" stroke="yellow" points="262.775,-45.8448 268.886,-37.19 258.712,-40.1448 262.775,-45.8448"/>
</g>
</g>
</svg>
