<?xml version="1.0" encoding="UTF-8" standalone="no"?>
<!DOCTYPE svg PUBLIC "-//W3C//DTD SVG 1.1//EN"
 "http://www.w3.org/Graphics/SVG/1.1/DTD/svg11.dtd">
<!-- Generated by graphviz version 2.34.0 (20130907.0228)
 -->
<!-- Title: %3 Pages: 1 -->
<svg width="387pt" height="120pt"
 viewBox="0.00 0.00 387.00 120.00" xmlns="http://www.w3.org/2000/svg" xmlns:xlink="http://www.w3.org/1999/xlink">
<g id="graph0" class="graph" transform="scale(1 1) rotate(0) translate(4 116)">
<title>%3</title>
<polygon fill="white" stroke="white" points="-4,4 -4,-116 383,-116 383,4 -4,4"/>
<!-- org_liveSense_misc_jcrom -->
<g id="node1" class="node"><title>org_liveSense_misc_jcrom</title>
<polygon fill="yellow" stroke="black" points="102,-75 102,-111 282,-111 282,-75 102,-75"/>
<text text-anchor="middle" x="192" y="-100.1" font-family="Arial" font-size="8.00">liveSense :: Misc :: Jcrom node bean mapping</text>
<polyline fill="none" stroke="black" points="102,-93 282,-93 "/>
<text text-anchor="middle" x="192" y="-82.1" font-family="Arial" font-size="8.00">org.liveSense.misc.jcrom(2&#45;SNAPSHOT)</text>
</g>
<!-- javax_jcr -->
<g id="node2" class="node"><title>javax_jcr</title>
<polygon fill="green" stroke="black" points="0,-1 0,-37 186,-37 186,-1 0,-1"/>
<text text-anchor="middle" x="93" y="-26.1" font-family="Arial" font-size="8.00">Content Repository for JavaTM Technology API</text>
<polyline fill="none" stroke="black" points="0,-19 186,-19 "/>
<text text-anchor="middle" x="93" y="-8.1" font-family="Arial" font-size="8.00">javax.jcr(2.0)</text>
</g>
<!-- org_liveSense_misc_jcrom&#45;&gt;javax_jcr -->
<g id="edge1" class="edge"><title>org_liveSense_misc_jcrom&#45;&gt;javax_jcr</title>
<path fill="none" stroke="yellow" d="M168.538,-74.937C155.564,-65.5012 139.253,-53.6389 125.112,-43.3541"/>
<polygon fill="yellow" stroke="yellow" points="126.782,-40.2412 116.636,-37.19 122.665,-45.9024 126.782,-40.2412"/>
</g>
<!-- org_apache_servicemix_bundles_cglib -->
<g id="node3" class="node"><title>org_apache_servicemix_bundles_cglib</title>
<polygon fill="green" stroke="black" points="204.5,-1 204.5,-37 379.5,-37 379.5,-1 204.5,-1"/>
<text text-anchor="middle" x="292" y="-26.1" font-family="Arial" font-size="8.00">Apache ServiceMix :: Bundles :: cglib</text>
<polyline fill="none" stroke="black" points="204.5,-19 379.5,-19 "/>
<text text-anchor="middle" x="292" y="-8.1" font-family="Arial" font-size="8.00">org.apache.servicemix.bundles.cglib(2.2.2.1)</text>
</g>
<!-- org_liveSense_misc_jcrom&#45;&gt;org_apache_servicemix_bundles_cglib -->
<g id="edge2" class="edge"><title>org_liveSense_misc_jcrom&#45;&gt;org_apache_servicemix_bundles_cglib</title>
<path fill="none" stroke="yellow" d="M215.699,-74.937C228.928,-65.4122 245.59,-53.4149 259.967,-43.0635"/>
<polygon fill="yellow" stroke="yellow" points="262.055,-45.8735 268.125,-37.19 257.965,-40.1927 262.055,-45.8735"/>
</g>
</g>
</svg>
